<svg width="16" height="16" viewBox="0 0 16 16" fill="none" xmlns="http://www.w3.org/2000/svg">
<path d="M8 3C8.69036 3 9.25 2.44036 9.25 1.75C9.25 1.05964 8.69036 0.5 8 0.5C7.30964 0.5 6.75 1.05964 6.75 1.75C6.75 2.44036 7.30964 3 8 3Z" stroke="black" stroke-miterlimit="10"/>
<path d="M6.22813 9.23811L5.27812 14.6194C5.26105 14.7164 5.26326 14.8159 5.28465 14.9121C5.30604 15.0083 5.34617 15.0993 5.40277 15.18C5.45936 15.2607 5.5313 15.3294 5.61447 15.3823C5.69765 15.4352 5.79042 15.4711 5.8875 15.4881C5.9842 15.5053 6.08336 15.5032 6.17923 15.4818C6.27509 15.4604 6.36576 15.4202 6.44598 15.3635C6.5262 15.3068 6.59438 15.2348 6.64656 15.1516C6.69875 15.0684 6.73391 14.9756 6.75 14.8787L7.40625 11.1319V11.1381C7.40625 11.1381 7.56875 10.1225 7.95312 10.1225H8.05C8.44063 10.1225 8.59688 11.1381 8.59688 11.1381V11.135L9.25313 14.8819C9.28793 15.077 9.39886 15.2504 9.56148 15.3638C9.72411 15.4772 9.92513 15.5214 10.1203 15.4865C10.3155 15.4517 10.4889 15.3408 10.6023 15.1782C10.7157 15.0156 10.7598 14.8145 10.725 14.6194L9.775 9.23811L9.62187 8.30999C9.53125 7.74436 9.49062 6.82249 9.6375 6.44436C9.7625 6.11936 10.0791 6.00061 10.3625 6.00061H13.25C13.4489 6.00061 13.6397 5.92159 13.7803 5.78094C13.921 5.64029 14 5.44952 14 5.25061C14 5.0517 13.921 4.86093 13.7803 4.72028C13.6397 4.57963 13.4489 4.50061 13.25 4.50061H2.75C2.55109 4.50061 2.36032 4.57963 2.21967 4.72028C2.07902 4.86093 2 5.0517 2 5.25061C2 5.44952 2.07902 5.64029 2.21967 5.78094C2.36032 5.92159 2.55109 6.00061 2.75 6.00061H5.64062C5.92906 6.00061 6.24062 6.11936 6.36562 6.44436C6.5125 6.82249 6.47187 7.74436 6.38125 8.30999L6.22813 9.23811Z" stroke="black" stroke-miterlimit="10"/>
</svg>
