<svg width="24" height="24" viewBox="0 0 24 24" fill="none" xmlns="http://www.w3.org/2000/svg">
<path d="M12 5.9C11.2385 5.9 10.4942 6.1258 9.86106 6.54884C9.22793 6.97189 8.73446 7.57317 8.44307 8.27667C8.15167 8.98016 8.07543 9.75427 8.22398 10.5011C8.37253 11.2479 8.73921 11.9339 9.27764 12.4724C9.81607 13.0108 10.5021 13.3775 11.2489 13.526C11.9957 13.6746 12.7698 13.5983 13.4733 13.3069C14.1768 13.0155 14.7781 12.5221 15.2012 11.8889C15.6242 11.2558 15.85 10.5115 15.85 9.75C15.85 8.72892 15.4444 7.74965 14.7224 7.02764C14.0003 6.30562 13.0211 5.9 12 5.9ZM11.9999 11.9C11.5747 11.9 11.1591 11.7739 10.8055 11.5377C10.452 11.3014 10.1764 10.9656 10.0137 10.5728C9.85093 10.1799 9.80835 9.74762 9.89131 9.33056C9.97427 8.9135 10.179 8.5304 10.4797 8.22972C10.7804 7.92904 11.1635 7.72427 11.5806 7.64131C11.9976 7.55835 12.4299 7.60093 12.8228 7.76366C13.2156 7.92639 13.5514 8.20196 13.7877 8.55552C14.0239 8.90906 14.15 9.3247 14.15 9.74989C14.1494 10.3199 13.9226 10.8664 13.5195 11.2695C13.1165 11.6726 12.5699 11.8994 11.9999 11.9Z" fill="#E03C31" stroke="#E03C31" stroke-width="0.2"/>
<path d="M12 1.5C9.9233 1.5 7.89323 2.11581 6.16652 3.26957C4.4398 4.42332 3.09399 6.0632 2.29927 7.98182C1.50455 9.90045 1.29661 12.0116 1.70176 14.0484C2.1069 16.0852 3.10693 17.9562 4.57538 19.4246C6.04383 20.8931 7.91476 21.8931 9.95156 22.2982C11.9884 22.7034 14.0996 22.4955 16.0182 21.7007C17.9368 20.906 19.5767 19.5602 20.7304 17.8335C21.8842 16.1068 22.5 14.0767 22.5 12C22.4969 9.21619 21.3896 6.5473 19.4212 4.57884C17.4527 2.61039 14.7838 1.50314 12 1.5ZM7.5 19.7824V18.75C7.50066 18.1535 7.73792 17.5815 8.15974 17.1597C8.58155 16.7379 9.15347 16.5007 9.75 16.5H14.25C14.8465 16.5007 15.4185 16.7379 15.8403 17.1597C16.2621 17.5815 16.4993 18.1535 16.5 18.75V19.7824C15.1344 20.5798 13.5814 21 12 21C10.4186 21 8.86563 20.5798 7.5 19.7824ZM17.9944 18.6944C17.9795 17.7105 17.5786 16.772 16.8782 16.0809C16.1778 15.3899 15.2339 15.0017 14.25 15H9.75C8.76608 15.0017 7.8222 15.3899 7.1218 16.0809C6.42139 16.772 6.02054 17.7105 6.00563 18.6944C4.64555 17.4799 3.68643 15.881 3.25526 14.1093C2.82408 12.3377 2.9412 10.4769 3.59111 8.77324C4.24101 7.06963 5.39304 5.6036 6.89466 4.56927C8.39627 3.53495 10.1766 2.98112 12 2.98112C13.8234 2.98112 15.6037 3.53495 17.1054 4.56927C18.607 5.6036 19.759 7.06963 20.4089 8.77324C21.0588 10.4769 21.1759 12.3377 20.7448 14.1093C20.3136 15.881 19.3545 17.4799 17.9944 18.6944Z" fill="#E03C31"/>
</svg>
